<?xml version="1.0" encoding="UTF-8"?>
<svg version="1.1" xmlns="http://www.w3.org/2000/svg" width="1430" height="750">
<path d="M0 0 C45.87 0 91.74 0 139 0 C139.01981934 10.34110107 139.03963867 20.68220215 139.06005859 31.33666992 C139.12496789 64.48463782 139.19950715 97.63257788 139.28005161 130.78051133 C139.29256937 135.93578667 139.30500232 141.09106222 139.31738281 146.24633789 C139.31984881 147.27259147 139.3223148 148.29884505 139.32485552 149.35619722 C139.364499 165.93834172 139.39728342 182.52049298 139.42749982 199.10265704 C139.45869542 216.13771554 139.49733901 233.1727456 139.54279006 250.20777208 C139.57056808 260.70573978 139.59264702 271.20368687 139.60726251 281.70168129 C139.61786511 288.91616069 139.63575043 296.13059998 139.65916704 303.34504905 C139.67243584 307.49743315 139.68268186 311.64976147 139.68421364 315.80216789 C139.6975651 347.12071163 139.6975651 347.12071163 144.1875 378.0625 C144.40253174 379.05870361 144.61756348 380.05490723 144.83911133 381.08129883 C151.93351892 412.51940906 167.33358217 441.20761768 189 465 C189.99895128 466.11956565 190.9976418 467.23936401 191.99609375 468.359375 C223.76204617 503.68923814 267.60842503 525.76121719 315 530 C317.90520171 530.15332547 320.80596975 530.2087309 323.71484375 530.23828125 C324.92222954 530.25297203 324.92222954 530.25297203 326.15400696 530.26795959 C352.13473782 530.51874216 376.28373432 528.69088204 401 520 C401.64904297 519.77618652 402.29808594 519.55237305 402.96679688 519.32177734 C420.24714844 513.2518952 436.56107256 504.21981845 451 493 C451.87527344 492.33484375 452.75054688 491.6696875 453.65234375 490.984375 C460.44642396 485.70366811 466.74504407 479.89926496 473 474 C473.73347656 473.3090625 474.46695312 472.618125 475.22265625 471.90625 C498.41171812 449.40871085 514.96563465 419.58692716 523.375 388.5625 C523.71494995 387.33418457 523.71494995 387.33418457 524.06176758 386.08105469 C529.41097167 364.84517716 529.45259982 343.14174922 529.43273985 321.40227234 C529.4321073 317.0747268 529.44881615 312.74724024 529.46325684 308.41972351 C529.485887 300.94942833 529.49790074 293.47917929 529.50238609 286.00885201 C529.50888673 275.20846329 529.53189207 264.40815744 529.55872939 253.60780238 C529.60184784 236.07847178 529.63189954 218.54914469 529.65356445 201.01977539 C529.67461919 184.00706251 529.70193321 166.99437835 529.73754883 149.98168945 C529.73974765 148.93033566 529.74194648 147.87898186 529.74421193 146.79576886 C529.75528271 141.52063201 529.7664753 136.24549543 529.77772844 130.97035897 C529.87070164 87.31359005 529.93995938 43.65682906 530 0 C576.2 0 622.4 0 670 0 C670.06629118 44.71425257 670.12162378 89.42845832 670.15319599 134.14274607 C670.15694755 139.43663549 670.16083057 144.7305248 670.16479492 150.02441406 C670.16558185 151.07821299 670.16636878 152.13201192 670.16717956 153.21774416 C670.18018916 170.22062443 670.20381815 187.22347389 670.23145839 204.22633596 C670.25963695 221.70777074 670.2762024 239.18918952 670.28226548 256.67064607 C670.28635628 267.43426455 670.29921682 278.19779588 670.3237494 288.9613875 C670.33976082 296.36934593 670.34436605 303.77726014 670.34050413 311.18523456 C670.33860619 315.44207074 670.34125216 319.69875603 670.35761642 323.9555645 C670.61650287 394.95916771 653.88538602 464.94505534 613 524 C612.59217285 524.59780273 612.1843457 525.19560547 611.76416016 525.81152344 C599.1070733 544.32092128 584.2550916 560.78442782 568.5 576.6875 C567.63375 577.56688232 566.7675 578.44626465 565.875 579.35229492 C559.89735841 585.33725102 553.63081205 590.75339162 547 596 C546.24750977 596.60642334 545.49501953 597.21284668 544.71972656 597.83764648 C495.04654099 637.8092156 435.06965315 661.28352539 372 669 C371.1335083 669.10602539 370.2670166 669.21205078 369.37426758 669.32128906 C358.2817823 670.4510886 347.07468307 670.24397957 335.9375 670.25 C334.81851318 670.25067474 333.69952637 670.25134949 332.54663086 670.25204468 C315.83158224 670.23602893 299.51857766 669.77540514 283 667 C281.43596436 666.75056641 281.43596436 666.75056641 279.84033203 666.49609375 C253.2510666 662.17198493 227.85264664 654.30345019 203 644 C201.66316162 643.44940918 201.66316162 643.44940918 200.29931641 642.88769531 C155.86614081 624.36893042 112.86790336 593.22669145 82 556 C81.55076172 555.46455566 81.10152344 554.92911133 80.63867188 554.37744141 C22.72920792 485.2078039 -0.23120923 403.531387 -0.11606562 314.65894437 C-0.11170203 310.42609242 -0.11321169 306.19324175 -0.1139679 301.96038818 C-0.11448942 294.64661159 -0.11138164 287.332844 -0.10573006 280.01906967 C-0.09756442 269.44489203 -0.09499467 258.8707187 -0.09374207 248.29653825 C-0.09155946 231.13600351 -0.08492093 213.97547355 -0.07543945 196.81494141 C-0.06624479 180.15608748 -0.05917403 163.49723486 -0.05493164 146.83837891 C-0.05466892 145.80960746 -0.05440619 144.78083601 -0.05413551 143.72088967 C-0.05283037 138.55927245 -0.05156668 133.39765521 -0.05032361 128.23603797 C-0.03997566 85.49068773 -0.02155072 42.74534635 0 0 Z " fill="#009FE3" transform="translate(753,12)"/>
<path d="M0 0 C1.99165442 1.80357238 4.01662482 3.54871721 6.06640625 5.28515625 C15.11348397 13.1714073 23.60782218 21.90598889 31.31640625 31.09765625 C32.10917969 32.00128906 32.90195312 32.90492188 33.71875 33.8359375 C91.36085123 99.89209637 113.76940879 182.78022664 113.54853749 268.75842917 C113.5397603 273.0600062 113.54283305 277.36157874 113.54434204 281.66316223 C113.54538203 289.08541386 113.53919921 296.50762985 113.52786636 303.92987251 C113.51149255 314.66069414 113.50639132 325.39149885 113.50389038 336.12233161 C113.49953173 353.53965332 113.48627276 370.95695612 113.46728516 388.37426758 C113.44887866 405.27628486 113.43474561 422.17829696 113.42626953 439.08032227 C113.42548136 440.6476038 113.42548136 440.6476038 113.42467727 442.24654759 C113.42206687 447.48917478 113.41953953 452.731802 113.41705346 457.97442925 C113.39637806 501.34885506 113.35953945 544.72324582 113.31640625 588.09765625 C67.44640625 588.09765625 21.57640625 588.09765625 -25.68359375 588.09765625 C-25.70341309 577.62490967 -25.72323242 567.15216309 -25.74365234 556.36206055 C-25.8085428 522.80344819 -25.88308086 489.24486342 -25.96364536 455.68628518 C-25.97616333 450.4683472 -25.98859624 445.25040901 -26.00097656 440.0324707 C-26.00344256 438.99373005 -26.00590855 437.95498939 -26.00844927 436.88477174 C-26.04810759 420.09434717 -26.08088549 403.30391592 -26.11109357 386.51347198 C-26.14227404 369.26824103 -26.18091134 352.02303825 -26.22638381 334.777839 C-26.25418085 324.14781475 -26.2762517 313.51781096 -26.29085626 302.88776026 C-26.30144762 295.58545867 -26.31932147 288.28319683 -26.34276079 280.98092528 C-26.35604758 276.77613211 -26.36627848 272.57139433 -26.36780739 268.36657906 C-26.36914905 244.1680255 -26.36914905 244.1680255 -28.68359375 220.09765625 C-28.89832368 218.59349923 -28.89832368 218.59349923 -29.11739159 217.05895519 C-34.26789707 183.01819845 -49.69245175 150.59826479 -72.68359375 125.09765625 C-73.76744129 123.80642103 -74.85083444 122.51480413 -75.93359375 121.22265625 C-105.58816862 87.84369165 -144.50251546 65.4611693 -188.68359375 58.09765625 C-189.37356445 57.9805127 -190.06353516 57.86336914 -190.77441406 57.74267578 C-240.3126381 49.77059908 -293.42183027 61.15512802 -334.15234375 90.5703125 C-341.78651046 96.23020324 -348.82860474 102.52751773 -355.68359375 109.09765625 C-356.26898926 109.65050293 -356.85438477 110.20334961 -357.45751953 110.77294922 C-385.26264117 137.12889631 -404.05038402 170.24067856 -412.43359375 207.59765625 C-412.63243164 208.47389648 -412.83126953 209.35013672 -413.03613281 210.25292969 C-417.14565823 229.65863034 -416.99314828 249.14065018 -417.00026798 268.86142683 C-417.00400067 273.15564909 -417.01917475 277.44983392 -417.03288269 281.74403381 C-417.05503921 289.16420718 -417.07012187 296.58436703 -417.08024979 304.00456619 C-417.09490308 314.73261379 -417.12045805 325.46061422 -417.14858107 336.18863396 C-417.19392895 353.5987252 -417.23059308 371.00882327 -417.26171875 388.41894531 C-417.29195367 405.32032469 -417.32632646 422.2216874 -417.36621094 439.12304688 C-417.36867249 440.1667533 -417.37113403 441.21045972 -417.37367018 442.28579362 C-417.38604574 447.52233137 -417.39850208 452.75886892 -417.41099858 457.99540639 C-417.51438644 501.36280324 -417.60203487 544.73021178 -417.68359375 588.09765625 C-463.55359375 588.09765625 -509.42359375 588.09765625 -556.68359375 588.09765625 C-556.7277582 543.40866928 -556.76465816 498.71970305 -556.78572441 454.03070047 C-556.78822556 448.74409976 -556.79081423 443.45749909 -556.79345703 438.17089844 C-556.79398165 437.11851626 -556.79450627 436.06613408 -556.79504679 434.98186153 C-556.80372833 417.98463675 -556.81948579 400.98742563 -556.83789934 383.99020892 C-556.85666124 366.52462222 -556.86772372 349.05904262 -556.87177074 331.59344625 C-556.8745028 320.83290247 -556.88310366 310.07239728 -556.89942668 299.31186539 C-556.91007137 291.91376713 -556.91317761 284.51568856 -556.9105965 277.11758322 C-556.90932675 272.86152357 -556.91114885 268.60553094 -556.9220047 264.34948349 C-556.97800263 241.24106315 -556.47840596 218.30903271 -552.55859375 195.47265625 C-552.34686523 194.23104736 -552.13513672 192.98943848 -551.91699219 191.71020508 C-542.58567286 139.53815566 -520.6790786 88.71358309 -487.68359375 47.09765625 C-486.88050781 46.081875 -486.07742188 45.06609375 -485.25 44.01953125 C-481.00552929 38.75256239 -476.58330875 33.67186557 -472.01953125 28.6796875 C-470.12655314 26.58728193 -468.27921887 24.46901357 -466.4375 22.33203125 C-462.55210486 17.88287902 -458.43289437 13.69934589 -454.24609375 9.53515625 C-453.53388672 8.81908203 -452.82167969 8.10300781 -452.08789062 7.36523438 C-402.21446518 -42.41759448 -333.26379483 -73.451707 -263.68359375 -81.90234375 C-262.41805664 -82.05678955 -262.41805664 -82.05678955 -261.12695312 -82.21435547 C-167.10929344 -93.06650328 -70.13568912 -63.98921245 0 0 Z " fill="#312783" transform="translate(577.68359375,95.90234375)"/>
</svg>
